<mxfile host="app.diagrams.net" agent="Mozilla/5.0 (Windows NT 10.0; Win64; x64) AppleWebKit/537.36 (KHTML, like Gecko) Chrome/131.0.0.0 Safari/537.36" version="24.9.1">
  <diagram id="C5RBs43oDa-KdzZeNtuy" name="Page-1">
    <mxGraphModel dx="880" dy="460" grid="1" gridSize="10" guides="1" tooltips="1" connect="1" arrows="1" fold="1" page="1" pageScale="1" pageWidth="827" pageHeight="1169" math="0" shadow="0">
      <root>
        <mxCell id="WIyWlLk6GJQsqaUBKTNV-0" />
        <mxCell id="WIyWlLk6GJQsqaUBKTNV-1" parent="WIyWlLk6GJQsqaUBKTNV-0" />
        <mxCell id="QDZ6BZHxXhVc5xQqzvhd-15" value="" style="edgeStyle=orthogonalEdgeStyle;rounded=0;orthogonalLoop=1;jettySize=auto;html=1;" edge="1" parent="WIyWlLk6GJQsqaUBKTNV-1" source="QDZ6BZHxXhVc5xQqzvhd-8" target="QDZ6BZHxXhVc5xQqzvhd-14">
          <mxGeometry relative="1" as="geometry" />
        </mxCell>
        <mxCell id="QDZ6BZHxXhVc5xQqzvhd-8" value="start" style="strokeWidth=2;html=1;shape=mxgraph.flowchart.terminator;whiteSpace=wrap;" vertex="1" parent="WIyWlLk6GJQsqaUBKTNV-1">
          <mxGeometry x="360" y="210" width="100" height="60" as="geometry" />
        </mxCell>
        <mxCell id="QDZ6BZHxXhVc5xQqzvhd-17" value="" style="edgeStyle=orthogonalEdgeStyle;rounded=0;orthogonalLoop=1;jettySize=auto;html=1;" edge="1" parent="WIyWlLk6GJQsqaUBKTNV-1" source="QDZ6BZHxXhVc5xQqzvhd-14" target="QDZ6BZHxXhVc5xQqzvhd-16">
          <mxGeometry relative="1" as="geometry" />
        </mxCell>
        <mxCell id="QDZ6BZHxXhVc5xQqzvhd-14" value="แสดงผลคำว่า &quot;Hello, I&#39;m Javis (RMUTL-Version)&quot;" style="shape=parallelogram;perimeter=parallelogramPerimeter;whiteSpace=wrap;html=1;fixedSize=1;strokeWidth=2;" vertex="1" parent="WIyWlLk6GJQsqaUBKTNV-1">
          <mxGeometry x="240" y="340" width="340" height="60" as="geometry" />
        </mxCell>
        <mxCell id="QDZ6BZHxXhVc5xQqzvhd-19" value="" style="edgeStyle=orthogonalEdgeStyle;rounded=0;orthogonalLoop=1;jettySize=auto;html=1;" edge="1" parent="WIyWlLk6GJQsqaUBKTNV-1" source="QDZ6BZHxXhVc5xQqzvhd-16" target="QDZ6BZHxXhVc5xQqzvhd-18">
          <mxGeometry relative="1" as="geometry" />
        </mxCell>
        <mxCell id="QDZ6BZHxXhVc5xQqzvhd-16" value="แสดงผลคำว่า &quot;This is my first time to coding with C language&quot;" style="shape=parallelogram;perimeter=parallelogramPerimeter;whiteSpace=wrap;html=1;fixedSize=1;strokeWidth=2;" vertex="1" parent="WIyWlLk6GJQsqaUBKTNV-1">
          <mxGeometry x="220" y="480" width="380" height="60" as="geometry" />
        </mxCell>
        <mxCell id="QDZ6BZHxXhVc5xQqzvhd-21" value="" style="edgeStyle=orthogonalEdgeStyle;rounded=0;orthogonalLoop=1;jettySize=auto;html=1;" edge="1" parent="WIyWlLk6GJQsqaUBKTNV-1" source="QDZ6BZHxXhVc5xQqzvhd-18" target="QDZ6BZHxXhVc5xQqzvhd-20">
          <mxGeometry relative="1" as="geometry" />
        </mxCell>
        <mxCell id="QDZ6BZHxXhVc5xQqzvhd-18" value="แสดงผลคำว่า &quot;Today is my birth day&quot;" style="shape=parallelogram;perimeter=parallelogramPerimeter;whiteSpace=wrap;html=1;fixedSize=1;strokeWidth=2;" vertex="1" parent="WIyWlLk6GJQsqaUBKTNV-1">
          <mxGeometry x="255" y="630" width="310" height="60" as="geometry" />
        </mxCell>
        <mxCell id="QDZ6BZHxXhVc5xQqzvhd-20" value="end" style="strokeWidth=2;html=1;shape=mxgraph.flowchart.terminator;whiteSpace=wrap;" vertex="1" parent="WIyWlLk6GJQsqaUBKTNV-1">
          <mxGeometry x="360" y="750" width="100" height="60" as="geometry" />
        </mxCell>
      </root>
    </mxGraphModel>
  </diagram>
</mxfile>
